HIERARCHY
ROOT Hips
{
  OFFSET -4.35178 90.3298 111.633
  CHANNELS 6 Xposition Yposition Zposition Zrotation Xrotation Yrotation
  JOINT LeftUpLeg
  {
    OFFSET 0.103456 1.85784 10.5485
    CHANNELS 6 Xposition Yposition Zposition Zrotation Xrotation Yrotation
    JOINT LeftLeg
    {
      OFFSET 43.5 -4.2e-05 0
      CHANNELS 6 Xposition Yposition Zposition Zrotation Xrotation Yrotation
      JOINT LeftFoot
      {
        OFFSET 42.3722 1.9e-05 0
        CHANNELS 6 Xposition Yposition Zposition Zrotation Xrotation Yrotation
        JOINT LeftToe
        {
          OFFSET 17.3 0 0
          CHANNELS 6 Xposition Yposition Zposition Zrotation Xrotation Yrotation
          End Site
          {
            OFFSET 0 0 0
          }
        }
      }
    }
  }
  JOINT RightUpLeg
  {
    OFFSET 0.103456 1.85782 -10.5485
    CHANNELS 6 Xposition Yposition Zposition Zrotation Xrotation Yrotation
    JOINT RightLeg
    {
      OFFSET 43.5 -2.7e-05 0
      CHANNELS 6 Xposition Yposition Zposition Zrotation Xrotation Yrotation
      JOINT RightFoot
      {
        OFFSET 42.3723 0 0
        CHANNELS 6 Xposition Yposition Zposition Zrotation Xrotation Yrotation
        JOINT RightToe
        {
          OFFSET 17.3 0 1.7e-05
          CHANNELS 6 Xposition Yposition Zposition Zrotation Xrotation Yrotation
          End Site
          {
            OFFSET 0 0 0
          }
        }
      }
    }
  }
  JOINT Spine
  {
    OFFSET 6.90197 -2.60373 0
    CHANNELS 6 Xposition Yposition Zposition Zrotation Xrotation Yrotation
    JOINT Spine1
    {
      OFFSET 12.5881 0 0
      CHANNELS 6 Xposition Yposition Zposition Zrotation Xrotation Yrotation
      JOINT Spine2
      {
        OFFSET 12.3432 -1.8e-05 0
        CHANNELS 6 Xposition Yposition Zposition Zrotation Xrotation Yrotation
        JOINT Neck
        {
          OFFSET 25.8329 2.3e-05 0
          CHANNELS 6 Xposition Yposition Zposition Zrotation Xrotation Yrotation
          JOINT Head
          {
            OFFSET 11.7666 0 0
            CHANNELS 6 Xposition Yposition Zposition Zrotation Xrotation Yrotation
            End Site
            {
              OFFSET 0 0 0
            }
          }
        }
        JOINT LeftShoulder
        {
          OFFSET 19.7459 -1.48035 6.0001
          CHANNELS 6 Xposition Yposition Zposition Zrotation Xrotation Yrotation
          JOINT LeftArm
          {
            OFFSET 11.2841 1.8e-05 -2e-05
            CHANNELS 6 Xposition Yposition Zposition Zrotation Xrotation Yrotation
            JOINT LeftForeArm
            {
              OFFSET 33 -1.3e-05 1.9e-05
              CHANNELS 6 Xposition Yposition Zposition Zrotation Xrotation Yrotation
              JOINT LeftHand
              {
                OFFSET 25.2 3.2e-05 1.1e-05
                CHANNELS 6 Xposition Yposition Zposition Zrotation Xrotation Yrotation
                End Site
                {
                  OFFSET 0 0 0
                }
              }
            }
          }
        }
        JOINT RightShoulder
        {
          OFFSET 19.7461 -1.48036 -6.00008
          CHANNELS 6 Xposition Yposition Zposition Zrotation Xrotation Yrotation
          JOINT RightArm
          {
            OFFSET 11.2841 0 0
            CHANNELS 6 Xposition Yposition Zposition Zrotation Xrotation Yrotation
            JOINT RightForeArm
            {
              OFFSET 33.0001 1.6e-05 0
              CHANNELS 6 Xposition Yposition Zposition Zrotation Xrotation Yrotation
              JOINT RightHand
              {
                OFFSET 25.1998 0.000123 0.000432
                CHANNELS 6 Xposition Yposition Zposition Zrotation Xrotation Yrotation
                End Site
                {
                  OFFSET 0 0 0
                }
              }
            }
          }
        }
      }
    }
  }
}
MOTION
Frames:	5
Frame Time:	0.0333333
61.6807 89.9042 -141.446 -26.1213 -82.9101 -114.77 0.103456 1.85784 10.5485 10.1806 4.70787 -178.917 43.5 -4.2e-05 1e-05 -9.57313 -8.37693 -10.39 42.3722 1.9e-05 0 81.1342 -7.80538 4.89788 17.3 3.55271e-15 3e-06 21.4546 -1e-06 0.003093 0.103456 1.85782 -10.5485 5.92431 -9.62838 175.218 43.5 -2.7e-05 4e-06 -14.6116 9.31254 2.84391 42.3723 0 1e-05 83.4548 5.26495 -0.881928 17.3 -6e-06 1.7e-05 21.4546 -1.9e-05 -0.003116 6.90197 -2.60373 -3e-06 7.45656 -1.28354 -0.482313 12.5881 1e-05 8e-06 4.92408 -2.56708 -0.748609 12.3432 -1.8e-05 -5e-06 4.64973 -2.53702 -0.581862 25.8329 2.3e-05 7e-06 3.38755 -3.00465 -7.78386 11.7666 -8e-06 -6e-06 -30.4486 -7.02942 10.0811 19.7459 -1.48035 6.0001 -176.755 2.53804 -91.5103 11.2841 1.8e-05 -2e-05 32.1138 -18.093 21.0116 33 -1.3e-05 1.9e-05 -33.3174 -3.59816 -16.3728 25.2 3.2e-05 1.1e-05 16.9469 28.2712 -6.74675 19.7461 -1.48036 -6.00008 179.214 6.28289 91.7739 11.2841 0 -1e-06 -5.80808 6.80862 -12.7145 33.0001 1.6e-05 -1e-06 -17.932 -1.72358 14.1447 25.1998 0.000123 0.000432 11.6047 -15.1971 3.52067 
61.6881 89.9061 -141.467 -26.1359 -82.914 -114.785 0.103456 1.85784 10.5485 10.1793 4.70345 -178.901 43.5 -4.2e-05 1e-05 -9.58961 -8.37693 -10.39 42.3722 1.9e-05 0 81.1725 -7.77603 4.89986 17.3 0 3e-06 21.4546 -1e-06 0.003093 0.103456 1.85782 -10.5485 5.92338 -9.63639 175.233 43.5 -2.7e-05 4e-06 -14.6643 9.30997 2.84389 42.3723 0 1e-05 83.496 5.23131 -0.881881 17.3 -6e-06 1.7e-05 21.4546 -1.9e-05 -0.003116 6.90197 -2.60373 -3e-06 7.46558 -1.28084 -0.482312 12.5881 1e-05 8e-06 4.94201 -2.56104 -0.748605 12.3432 -1.8e-05 -5e-06 4.66752 -2.53026 -0.581859 25.8329 2.3e-05 7e-06 3.38328 -3.00414 -7.78368 11.7666 -8e-06 -6e-06 -30.5583 -7.05369 10.0916 19.7459 -1.48035 6.0001 -176.793 2.53052 -91.5027 11.2841 1.8e-05 -2e-05 32.0546 -18.1128 21.0483 33 -1.3e-05 1.9e-05 -33.3763 -3.60698 -16.3729 25.2 3.2e-05 1.1e-05 16.9067 28.2612 -6.74863 19.7461 -1.48036 -6.00008 179.229 6.29401 91.7008 11.2841 0 -1e-06 -5.90462 6.68034 -12.7168 33.0001 1.6e-05 -1e-06 -17.8893 -1.83827 14.1044 25.1998 0.000123 0.000432 11.5678 -15.227 3.45625 
61.7024 89.9085 -141.498 -26.1675 -82.9225 -114.817 0.103456 1.85784 10.5485 10.1781 4.67874 -178.88 43.5 -4.2e-05 1e-05 -9.63255 -8.37693 -10.39 42.3722 1.9e-05 1.42109e-14 81.202 -7.70451 4.91208 17.3 3.55271e-15 3e-06 21.4546 -1e-06 0.003093 0.103456 1.85782 -10.5485 5.90253 -9.64323 175.246 43.5 -2.7e-05 4e-06 -14.7291 9.33099 2.84406 42.3723 2.84217e-14 1e-05 83.5502 5.22366 -0.893998 17.3 -6e-06 1.7e-05 21.4546 -1.9e-05 -0.003116 6.90197 -2.60373 -3e-06 7.47972 -1.27201 -0.479606 12.5881 1e-05 8e-06 4.96994 -2.5428 -0.748595 12.3432 -1.8e-05 -5e-06 4.69518 -2.51138 -0.58185 25.8329 2.3e-05 7e-06 3.36658 -2.95257 -7.79965 11.7666 -8e-06 -6e-06 -30.6373 -7.01278 10.1332 19.7459 -1.48035 6.0001 -176.825 2.53004 -91.4941 11.2841 1.8e-05 -2e-05 31.9687 -18.1286 21.0842 33 -1.3e-05 1.9e-05 -33.4279 -3.58436 -16.3869 25.2 3.2e-05 1.1e-05 16.9034 28.2681 -6.77582 19.7461 -1.48036 -6.00008 179.237 6.29608 91.6475 11.2841 0 -1e-06 -5.91351 6.62864 -12.7907 33.0001 1.6e-05 -1e-06 -17.9157 -1.75187 14.1044 25.1998 0.000123 0.000432 11.6171 -15.1744 3.43675 
61.7174 89.9113 -141.532 -26.193 -82.9292 -114.843 0.103456 1.85784 10.5485 10.1902 4.64214 -178.851 43.5 -4.2e-05 1e-05 -9.64343 -8.37693 -10.39 42.3722 1.9e-05 0 81.233 -7.53906 4.91974 17.3 0 3e-06 21.4546 -1e-06 0.003093 0.103456 1.85782 -10.5485 5.87261 -9.65158 175.256 43.5 -2.7e-05 4e-06 -14.8156 9.34305 2.84416 42.3723 0 1e-05 83.6183 5.21496 -0.894504 17.3 -6e-06 1.7e-05 21.4546 -1.9e-05 -0.003116 6.90197 -2.60373 -3e-06 7.49432 -1.26184 -0.475827 12.5881 1e-05 8e-06 4.99861 -2.52262 -0.754439 12.3432 -1.8e-05 -5e-06 4.72381 -2.49115 -0.581841 25.8329 2.3e-05 7e-06 3.35902 -2.88147 -7.83038 11.7666 -8e-06 -6e-06 -30.6534 -6.93972 10.1823 19.7459 -1.48035 6.0001 -176.832 2.56042 -91.438 11.2841 1.8e-05 -2e-05 31.7962 -18.0796 21.0308 33 -1.3e-05 1.9e-05 -33.4082 -3.55227 -16.3813 25.2 3.2e-05 1.1e-05 16.8118 28.2821 -6.72813 19.7461 -1.48036 -6.00008 179.227 6.32457 91.5951 11.2841 -1.42109e-14 -1e-06 -5.96057 6.64091 -12.905 33.0001 1.6e-05 -1e-06 -17.9011 -1.7947 14.1299 25.1998 0.000123 0.000432 11.5477 -15.1967 3.4979 
61.7336 89.9154 -141.565 -26.2392 -82.9368 -114.889 0.103456 1.85784 10.5485 10.2441 4.58147 -178.834 43.5 -4.2e-05 1e-05 -9.57503 -8.37691 -10.3907 42.3722 1.9e-05 0 81.2241 -7.4548 4.90918 17.3 0 3e-06 21.4546 -1e-06 0.003093 0.103456 1.85782 -10.5485 5.81412 -9.63143 175.257 43.5 -2.7e-05 4e-06 -14.9694 9.35865 2.84298 42.3723 -2.84217e-14 1e-05 83.6685 5.19865 -0.924825 17.3 -6e-06 1.7e-05 21.4546 -1.9e-05 -0.003116 6.90197 -2.60373 -3e-06 7.50772 -1.25277 -0.471313 12.5881 1e-05 8e-06 5.0252 -2.50394 -0.750556 12.3432 -1.8e-05 -5e-06 4.74993 -2.47187 -0.581833 25.8329 2.3e-05 7e-06 3.35244 -2.83982 -7.86989 11.7666 -8e-06 -6e-06 -30.5849 -6.88185 10.1976 19.7459 -1.48035 6.0001 -176.863 2.58956 -91.3841 11.2841 1.8e-05 -2e-05 31.6904 -18.082 21.0568 33 -1.3e-05 1.9e-05 -33.4495 -3.63338 -16.322 25.2 3.2e-05 1.1e-05 16.7831 28.2357 -6.7097 19.7461 -1.48036 -6.00008 179.234 6.34008 91.4856 11.2841 0 -1e-06 -6.01671 6.60955 -12.9921 33.0001 1.6e-05 -1e-06 -18.0394 -1.96234 14.1565 25.1998 0.000123 0.000432 11.3586 -15.2324 3.47115 
